HIERARCHY
ROOT Hips
{
	OFFSET 0.000000 0.000000 0.000000
	CHANNELS 6 Xposition Yposition Zposition Xrotation Yrotation Zrotation
	JOINT LeftUpLeg_virtual
	{
		OFFSET 0.000000 0.000000 0.000000
		CHANNELS 3 Xrotation Yrotation Zrotation
		JOINT LeftUpLeg
		{
			OFFSET 13.026900 -6.336304 -1.092800
			CHANNELS 3 Xrotation Yrotation Zrotation
			JOINT LeftLeg
			{
				OFFSET 0.524474 -46.096886 9.782700
				CHANNELS 3 Xrotation Yrotation Zrotation
				JOINT LeftFoot
				{
					OFFSET -0.524474 -53.427422 -12.948200
					CHANNELS 3 Xrotation Yrotation Zrotation
					JOINT LeftToeBase
					{
						OFFSET 0.192200 -14.009700 16.364100
						CHANNELS 3 Xrotation Yrotation Zrotation
						JOINT LeftToe_End
						{
							OFFSET -1.784700 -0.561700 9.474800
							CHANNELS 3 Xrotation Yrotation Zrotation
							End Site
							{
								OFFSET 0 0 0
							}
						}
					}
				}
			}
		}
	}
	JOINT RightUpLeg_virtual
	{
		OFFSET 0.000000 0.000000 0.000000
		CHANNELS 3 Xrotation Yrotation Zrotation
		JOINT RightUpLeg
		{
			OFFSET -12.883000 -6.336304 -1.092800
			CHANNELS 3 Xrotation Yrotation Zrotation
			JOINT RightLeg
			{
				OFFSET -0.524587 -46.096825 9.782800
				CHANNELS 3 Xrotation Yrotation Zrotation
				JOINT RightFoot
				{
					OFFSET 0.524587 -53.427383 -12.948300
					CHANNELS 3 Xrotation Yrotation Zrotation
					JOINT RightToeBase
					{
						OFFSET -0.192200 -14.009700 16.364100
						CHANNELS 3 Xrotation Yrotation Zrotation
						JOINT RightToe_End
						{
							OFFSET 1.784700 -0.561700 9.474800
							CHANNELS 3 Xrotation Yrotation Zrotation
							End Site
							{
								OFFSET 0 0 0
							}
						}
					}
				}
			}
		}
	}
	JOINT Spine_virtual
	{
		OFFSET 0.000000 0.000000 0.000000
		CHANNELS 3 Xrotation Yrotation Zrotation
		JOINT Spine
		{
			OFFSET 0.072000 7.257294 -0.789700
			CHANNELS 3 Xrotation Yrotation Zrotation
			JOINT Spine1
			{
				OFFSET 0.000000 12.508769 -0.658067
				CHANNELS 3 Xrotation Yrotation Zrotation
				JOINT Spine1_split
				{
					OFFSET 0.000000 12.508769 -0.658067
					CHANNELS 3 Xrotation Yrotation Zrotation
					JOINT Spine2
					{
						OFFSET 0.000000 12.508769 -0.658067
						CHANNELS 3 Xrotation Yrotation Zrotation
						JOINT Neck_virtual
						{
							OFFSET 0.000000 0.000000 0.000000
							CHANNELS 3 Xrotation Yrotation Zrotation
							JOINT Neck
							{
								OFFSET 0.000000 14.033295 7.520400
								CHANNELS 3 Xrotation Yrotation Zrotation
								JOINT Head
								{
									OFFSET 0.000000 8.198502 5.703100
									CHANNELS 3 Xrotation Yrotation Zrotation
									JOINT HeadTop_End
									{
										OFFSET 0.000000 17.760803 13.332701
										CHANNELS 3 Xrotation Yrotation Zrotation
										End Site
										{
											OFFSET 0 0 0
										}
									}
								}
							}
						}
						JOINT LeftShoulder_virtual
						{
							OFFSET 0.000000 0.000000 0.000000
							CHANNELS 3 Xrotation Yrotation Zrotation
							JOINT LeftShoulder
							{
								OFFSET 6.292450 5.785301 -0.669000
								CHANNELS 3 Xrotation Yrotation Zrotation
								JOINT LeftShoulder_split
								{
									OFFSET 6.292450 5.785301 -0.669000
									CHANNELS 3 Xrotation Yrotation Zrotation
									JOINT LeftArm
									{
										OFFSET 13.907140 -6.093903 1.965100
										CHANNELS 3 Xrotation Yrotation Zrotation
										JOINT LeftForeArm
										{
											OFFSET 34.140198 0.000000 0.000000
											CHANNELS 3 Xrotation Yrotation Zrotation
											JOINT LeftHand
											{
												OFFSET 40.960209 0.000000 0.000000
												CHANNELS 3 Xrotation Yrotation Zrotation
												End Site
												{
													OFFSET 0 0 0
												}
											}
										}
									}
								}
							}
						}
						JOINT RightShoulder_virtual
						{
							OFFSET 0.000000 0.000000 0.000000
							CHANNELS 3 Xrotation Yrotation Zrotation
							JOINT RightShoulder
							{
								OFFSET -6.292450 5.785301 -0.669000
								CHANNELS 3 Xrotation Yrotation Zrotation
								JOINT RightShoulder_split
								{
									OFFSET -6.292450 5.785301 -0.669000
									CHANNELS 3 Xrotation Yrotation Zrotation
									JOINT RightArm
									{
										OFFSET -13.907140 -6.093903 1.965100
										CHANNELS 3 Xrotation Yrotation Zrotation
										JOINT RightForeArm
										{
											OFFSET -34.140198 0.000000 0.000000
											CHANNELS 3 Xrotation Yrotation Zrotation
											JOINT RightHand
											{
												OFFSET -40.960209 0.000000 0.000000
												CHANNELS 3 Xrotation Yrotation Zrotation
												End Site
												{
													OFFSET 0 0 0
												}
											}
										}
									}
								}
							}
						}
					}
				}
			}
		}
	}
}
MOTION
Frames: 11
Frame Time: 0.03333333
0.539139 109.866074 0.947029 0.000000 0.000000 0.000000 -1.582159 -25.890594 0.157308 -24.415010 24.062265 11.397136 22.526268 7.405022 10.086050 -1.176379 0.409012 -13.054438 0.562873 -0.109305 -1.580242 0.000000 0.000000 0.000000 -2.069689 -24.775987 0.296421 -15.906729 -18.796054 -7.818026 25.021788 -0.958768 -8.041700 -10.758770 -1.189482 10.747024 -2.254113 0.172254 0.546939 0.000000 0.000000 0.000000 -0.661306 -26.716165 0.058377 4.261250 -1.671900 1.152170 0.699921 -0.655055 0.152518 1.060389 -0.528219 0.330913 0.000000 0.000000 0.000000 0.778355 -0.789242 0.222609 -2.344208 1.489471 3.336108 17.565904 23.790276 -12.645049 0.000000 0.000000 0.000000 1.370341 -0.724557 0.178843 -0.672670 2.473640 4.315568 -1.539682 0.045479 -0.334369 -53.291048 -2.265729 -49.333674 -13.356558 -87.428764 -13.011558 0.000000 0.000000 0.000000 2.229088 -0.379512 0.047574 -1.104483 -11.039268 11.057534 0.877831 1.841936 0.146194 -63.700031 64.954136 79.218890 -21.373235 87.324091 21.364816 0.000000 0.000000 0.000000 
0.541436 109.849777 0.949409 0.000000 0.000000 0.000000 -1.551820 -25.897451 0.201617 -24.418454 24.124906 11.393977 22.546637 7.390471 10.076685 -1.197034 0.364944 -13.076515 0.558480 -0.106908 -1.579955 0.000000 0.000000 0.000000 -2.047390 -24.764328 0.337855 -15.991080 -18.976525 -7.845674 25.070409 -0.815410 -8.136541 -10.735147 -1.172337 10.772893 -2.299051 0.168064 0.536402 0.000000 0.000000 0.000000 -0.634583 -26.751404 0.095551 4.243284 -1.703301 1.165765 0.680761 -0.662343 0.151746 1.060540 -0.529826 0.322340 0.000000 0.000000 0.000000 0.766343 -0.797392 0.221689 -2.323786 1.506368 3.333954 17.582232 23.808390 -12.650374 0.000000 0.000000 0.000000 1.353652 -0.731277 0.179983 -0.674234 2.497156 4.229102 -1.550741 0.028018 -0.340307 -53.269878 -2.333360 -49.261783 -12.868077 -87.323941 -12.523107 0.000000 0.000000 0.000000 2.213001 -0.391228 0.044864 -1.101572 -11.046047 11.041503 0.892630 1.842669 0.146355 -63.739189 64.997016 79.188776 -21.264517 87.325335 21.268265 0.000000 0.000000 0.000000 
0.549645 109.828667 0.950390 0.000000 0.000000 0.000000 -1.521712 -25.903950 0.243975 -24.438116 24.206622 11.416655 22.568185 7.359100 10.063378 -1.220566 0.305357 -13.098858 0.548374 -0.106474 -1.577880 0.000000 0.000000 0.000000 -2.023242 -24.747744 0.378950 -16.090158 -19.170847 -7.880866 25.132157 -0.652922 -8.236511 -10.713413 -1.150602 10.805848 -2.329854 0.164530 0.524451 0.000000 0.000000 0.000000 -0.604173 -26.792500 0.136462 4.227850 -1.739550 1.178304 0.659082 -0.671637 0.151707 1.058378 -0.529438 0.313840 0.000000 0.000000 0.000000 0.757191 -0.807907 0.220515 -2.309111 1.519771 3.338161 17.594963 23.824718 -12.652937 0.000000 0.000000 0.000000 1.336926 -0.741071 0.181120 -0.672084 2.507659 4.142733 -1.559384 0.017873 -0.339553 -53.270216 -2.397208 -49.176064 -12.361073 -87.232888 -12.018339 0.000000 0.000000 0.000000 2.197610 -0.404654 0.043017 -1.097532 -11.035838 11.012361 0.896160 1.859093 0.144928 -63.755547 65.010868 79.150315 -21.203262 87.329877 21.218842 0.000000 0.000000 0.000000 
0.561028 109.806625 0.952644 0.000000 0.000000 0.000000 -1.494224 -25.909322 0.284120 -24.460834 24.296456 11.454821 22.581102 7.323159 10.047348 -1.248854 0.246636 -13.116567 0.541958 -0.107636 -1.575587 0.000000 0.000000 0.000000 -1.999660 -24.731813 0.419456 -16.192265 -19.354162 -7.922915 25.209972 -0.483266 -8.334380 -10.687118 -1.128873 10.853021 -2.366956 0.161517 0.509734 0.000000 0.000000 0.000000 -0.576183 -26.835325 0.180048 4.211804 -1.780131 1.191646 0.636566 -0.682824 0.153192 1.053659 -0.525030 0.303857 0.000000 0.000000 0.000000 0.751286 -0.820773 0.220828 -2.297213 1.530185 3.342252 17.608982 23.840311 -12.660173 0.000000 0.000000 0.000000 1.321978 -0.753806 0.183661 -0.666679 2.507355 4.058594 -1.565509 0.009298 -0.330454 -53.305552 -2.453300 -49.080384 -11.773627 -87.144594 -11.433791 0.000000 0.000000 0.000000 2.184862 -0.419210 0.043182 -1.093024 -11.004341 10.958327 0.896116 1.888585 0.138084 -63.779883 65.001148 79.134599 -21.089114 87.321605 21.112204 0.000000 0.000000 0.000000 
0.568643 109.787903 0.958202 0.000000 0.000000 0.000000 -1.478178 -25.920640 0.319568 -24.468565 24.379310 11.494655 22.570842 7.297192 10.033720 -1.280490 0.204885 -13.129190 0.541512 -0.109437 -1.573302 0.000000 0.000000 0.000000 -1.981489 -24.723739 0.458199 -16.291316 -19.500521 -7.968396 25.294993 -0.320647 -8.420830 -10.657253 -1.111832 10.915152 -2.415323 0.158862 0.493986 0.000000 0.000000 0.000000 -0.555729 -26.876154 0.223471 4.193770 -1.824280 1.208427 0.614336 -0.695541 0.157793 1.045176 -0.518585 0.294612 0.000000 0.000000 0.000000 0.748802 -0.836109 0.223843 -2.281730 1.541462 3.338366 17.631420 23.856020 -12.680301 0.000000 0.000000 0.000000 1.310282 -0.769306 0.189345 -0.659519 2.499871 3.979216 -1.565756 0.012837 -0.309741 -53.376040 -2.497303 -48.979853 -11.137639 -87.048985 -10.796973 0.000000 0.000000 0.000000 2.176256 -0.434929 0.046489 -1.089172 -10.948840 10.863398 0.894407 1.918886 0.136560 -63.851217 64.979182 79.181891 -20.820959 87.289995 20.846468 0.000000 0.000000 0.000000 
0.569518 109.777260 0.963207 0.000000 0.000000 0.000000 -1.471149 -25.934906 0.350523 -24.450184 24.445109 11.525126 22.535296 7.288955 10.024892 -1.310457 0.188681 -13.138733 0.541752 -0.111327 -1.570579 0.000000 0.000000 0.000000 -1.970630 -24.730220 0.492911 -16.375527 -19.590863 -8.014432 25.374522 -0.177154 -8.489271 -10.635185 -1.103027 10.974721 -2.455466 0.156882 0.480190 0.000000 0.000000 0.000000 -0.543985 -26.914680 0.265593 4.171246 -1.870026 1.231139 0.594585 -0.710239 0.166588 1.040519 -0.508803 0.291244 0.000000 0.000000 0.000000 0.748433 -0.854500 0.231061 -2.259001 1.555779 3.320432 17.663445 23.875543 -12.718634 0.000000 0.000000 0.000000 1.302109 -0.787900 0.199688 -0.651769 2.490291 3.902654 -1.564830 0.026679 -0.277612 -53.480436 -2.530491 -48.884371 -10.435498 -86.932476 -10.089648 0.000000 0.000000 0.000000 2.171721 -0.452433 0.053598 -1.085946 -10.871059 10.722318 0.893948 1.945176 0.140414 -63.983675 64.950926 79.307847 -20.379107 87.226953 20.400704 0.000000 0.000000 0.000000 
0.562866 109.776787 0.964230 0.000000 0.000000 0.000000 -1.474843 -25.948211 0.375209 -24.405890 24.484794 11.539411 22.477104 7.303017 10.021937 -1.327077 0.198345 -13.152135 0.539390 -0.112361 -1.567278 0.000000 0.000000 0.000000 -1.968304 -24.752532 0.522146 -16.433896 -19.617784 -8.052767 25.444024 -0.072723 -8.530796 -10.631898 -1.108149 10.999690 -2.452130 0.156472 0.473625 0.000000 0.000000 0.000000 -0.539233 -26.948021 0.304560 4.144363 -1.915090 1.262398 0.577913 -0.727396 0.180213 1.041261 -0.504148 0.287165 0.000000 0.000000 0.000000 0.747380 -0.876042 0.243281 -2.224014 1.577333 3.284814 17.707837 23.901371 -12.777125 0.000000 0.000000 0.000000 1.296333 -0.809374 0.215230 -0.644506 2.483202 3.826863 -1.561767 0.054024 -0.241920 -53.598957 -2.552362 -48.798649 -9.753086 -86.788618 -9.395136 0.000000 0.000000 0.000000 2.169158 -0.472129 0.065339 -1.083213 -10.776421 10.539157 0.893260 1.970317 0.149960 -64.187440 64.923694 79.519999 -19.728477 87.125811 19.740087 0.000000 0.000000 0.000000 
0.550388 109.785439 0.965370 0.000000 0.000000 0.000000 -1.487525 -25.965316 0.392691 -24.342465 24.493926 11.535977 22.409120 7.338342 10.024664 -1.323414 0.227120 -13.171239 0.534064 -0.112475 -1.563694 0.000000 0.000000 0.000000 -1.975036 -24.791430 0.544288 -16.466056 -19.583798 -8.081950 25.492260 -0.016310 -8.539766 -10.646827 -1.127426 10.975923 -2.399719 0.158077 0.474314 0.000000 0.000000 0.000000 -0.542387 -26.978819 0.337323 4.114037 -1.956114 1.301588 0.565002 -0.746629 0.198401 1.045634 -0.507906 0.289477 0.000000 0.000000 0.000000 0.743234 -0.899666 0.260067 -2.178910 1.605688 3.232076 17.761417 23.933657 -12.850825 0.000000 0.000000 0.000000 1.292730 -0.833295 0.235326 -0.637890 2.480558 3.749368 -1.560673 0.090649 -0.211066 -53.711505 -2.564930 -48.725074 -9.135208 -86.616381 -8.759457 0.000000 0.000000 0.000000 2.165940 -0.493534 0.081461 -1.080858 -10.672616 10.327269 0.892966 1.995895 0.160351 -64.447507 64.897602 79.807919 -18.869163 86.977541 18.866714 0.000000 0.000000 0.000000 
0.532271 109.800163 0.963753 0.000000 0.000000 0.000000 -1.506745 -25.988043 0.405800 -24.268214 24.469696 11.510832 22.345362 7.391702 10.032881 -1.305526 0.271978 -13.190366 0.532710 -0.111603 -1.562081 0.000000 0.000000 0.000000 -1.987336 -24.838408 0.561147 -16.472169 -19.502844 -8.099651 25.517506 -0.006413 -8.516571 -10.669268 -1.156748 10.917262 -2.328201 0.161481 0.480109 0.000000 0.000000 0.000000 -0.550941 -27.006298 0.362834 4.082190 -1.988855 1.345965 0.556547 -0.766910 0.218833 1.050267 -0.514617 0.291888 0.000000 0.000000 0.000000 0.733959 -0.923252 0.279569 -2.126550 1.639158 3.167592 17.820139 23.970149 -12.931267 0.000000 0.000000 0.000000 1.290234 -0.857796 0.257606 -0.631359 2.484755 3.670041 -1.563505 0.131819 -0.191250 -53.797019 -2.575059 -48.661242 -8.617986 -86.426311 -8.221405 0.000000 0.000000 0.000000 2.159782 -0.514712 0.100028 -1.078296 -10.568464 10.111104 0.891939 2.025649 0.165841 -64.726547 64.875459 80.131889 -17.891351 86.785388 17.872385 0.000000 0.000000 0.000000 
0.510584 109.818497 0.968281 0.000000 0.000000 0.000000 -1.532137 -26.019828 0.415931 -24.182223 24.416190 11.462324 22.291147 7.456208 10.047254 -1.284559 0.326111 -13.209294 0.538618 -0.109726 -1.562781 0.000000 0.000000 0.000000 -2.005790 -24.893912 0.574942 -16.457979 -19.394674 -8.108601 25.524292 -0.036747 -8.463590 -10.683897 -1.189208 10.842497 -2.274377 0.165712 0.488035 0.000000 0.000000 0.000000 -0.563682 -27.029034 0.381648 4.051894 -2.009295 1.389043 0.551860 -0.785286 0.238470 1.052546 -0.527590 0.300690 0.000000 0.000000 0.000000 0.720417 -0.943619 0.298537 -2.071580 1.672730 3.098962 17.877487 24.002256 -13.004692 0.000000 0.000000 0.000000 1.288507 -0.879998 0.278343 -0.624571 2.496042 3.591087 -1.565607 0.174262 -0.178377 -53.833516 -2.589455 -48.602161 -8.220042 -86.238856 -7.802611 0.000000 0.000000 0.000000 2.148991 -0.533238 0.118510 -1.076011 -10.475314 9.913763 0.892818 2.056331 0.165261 -64.990971 64.855392 80.448413 -16.947033 86.568577 16.912023 0.000000 0.000000 0.000000 
0.486852 109.837433 0.980331 0.000000 0.000000 0.000000 -1.556269 -26.057240 0.428727 -24.084941 24.347656 11.393410 22.246787 7.522220 10.065354 -1.272249 0.378610 -13.227089 0.541292 -0.107109 -1.563578 0.000000 0.000000 0.000000 -2.025627 -24.946853 0.589698 -16.429711 -19.281860 -8.116833 25.510994 -0.094838 -8.389602 -10.686778 -1.217742 10.771258 -2.248750 0.169590 0.496192 0.000000 0.000000 0.000000 -0.578937 -27.046547 0.397726 4.025043 -2.014378 1.423317 0.550576 -0.799304 0.252914 1.052160 -0.539591 0.309236 0.000000 0.000000 0.000000 0.704561 -0.958215 0.312907 -2.020403 1.700664 3.035362 17.927107 24.021827 -13.058044 0.000000 0.000000 0.000000 1.286162 -0.897148 0.293091 -0.617208 2.513783 3.517253 -1.562760 0.210373 -0.168398 -53.812130 -2.618966 -48.546546 -7.923171 -86.079535 -7.489649 0.000000 0.000000 0.000000 2.133532 -0.546401 0.133214 -1.074016 -10.403574 9.761572 0.899270 2.084852 0.152000 -65.181943 64.837784 80.692674 -16.175985 86.358795 16.128049 0.000000 0.000000 0.000000 
